<svg class="icon"
    style="width: 1em;height: 1em;vertical-align: middle;fill: currentColor;overflow: hidden;"
    viewBox="0 0 1024 1024" version="1.1" xmlns="http://www.w3.org/2000/svg" p-id="2177">
    <path
        d="M183.8 681.9c-20.9-4.9-37-22.6-37-45.3V387.4c1.6-22.6 16.1-40.4 37-45.3l230-50.1 24.1-98.7h-267C76 193.3 0.4 269.3 0.4 363.2v294.4c0 93.8 77.2 171.5 170.5 171.5H438l-24.1-98.7-230.1-48.5z m669.3-488.6H584.4l24.1 98.7 230.1 50.1c20.9 4.9 37 22.6 37 45.3v249.1c-1.6 22.6-16.1 40.4-37 45.3L608.5 732l-24.1 98.7h268.7c93.3 0 170.5-76 170.5-171.5v-296c-1.6-93.9-77.2-169.9-170.5-169.9zM413.8 499.1h196.3v24.3H413.8v-24.3z m0 0"
        fill="#FFFFFF" fill-opacity=".65" p-id="2178"></path>
</svg>