<?xml version="1.0" encoding="utf-8"?>
<!-- Generator: Adobe Illustrator 26.4.1, SVG Export Plug-In . SVG Version: 6.00 Build 0)  -->
<svg version="1.1" id="图层_1" xmlns="http://www.w3.org/2000/svg" xmlns:xlink="http://www.w3.org/1999/xlink" x="0px" y="0px"
	 viewBox="0 0 1024 1024" style="enable-background:new 0 0 1024 1024;" xml:space="preserve">
<style type="text/css">
	.st0{fill:#575B66;}
</style>
<path class="st0" d="M378.69,429.82l-191.96-1.42c-52.98-0.39-95.72-36.41-95.39-80.4l1.18-159.38
	c0.32-43.99,43.59-79.37,96.57-78.98l191.96,1.42c52.98,0.39,95.72,36.41,95.39,80.4l-1.18,159.38
	C474.93,394.82,431.67,430.21,378.69,429.82z"/>
<path class="st0" d="M374.9,943.07l-191.96-1.42c-52.98-0.39-95.61-50.87-95.16-112.68l1.65-224.14
	c0.46-61.8,43.83-111.65,96.81-111.26l191.96,1.42c52.98,0.39,95.61,50.87,95.16,112.68l-1.65,223.94
	C471.26,893.41,427.88,943.46,374.9,943.07z"/>
<path class="st0" d="M822.99,946.38l-194.54-1.43c-51.68-0.38-93.26-42.58-92.88-94.26l1.1-149.6
	c0.39-52.98,38.35-76.65,91.33-76.26l203.9,1.5c52.98,0.39,89.09,24.61,88.7,77.59l-1.81,158.5
	C918.57,915.21,875.8,946.77,822.99,946.38z"/>
<path class="st0" d="M845.72,562.43l-218.26-1.61c-52.98-0.39-89.41-45.96-89.02-98.94l1.95-264.72
	c0.39-52.98,42.98-84.6,95.96-84.21l194.23,1.43c52.98,0.39,97.53,33.31,97.14,86.29l-5.35,264.04
	C922.14,517.69,898.53,562.82,845.72,562.43z"/>
</svg>
