<?xml version="1.0" encoding="utf-8"?>
<!-- Generator: Adobe Illustrator 26.4.1, SVG Export Plug-In . SVG Version: 6.00 Build 0)  -->
<svg version="1.1" id="图层_1" xmlns="http://www.w3.org/2000/svg" xmlns:xlink="http://www.w3.org/1999/xlink" x="0px" y="0px"
	 viewBox="0 0 1024 1024" style="enable-background:new 0 0 1024 1024;" xml:space="preserve">
<style type="text/css">
	.st0{fill:#FFFFFF;fill-opacity:0.65;}
</style>
<path class="st0" d="M956.4,92.2H794.6c-14.7,0-26.6-11.9-26.6-26.6V36.8C768,16.6,751.4,0,731.2,0h-18.5
	c-20.3,0-36.8,16.6-36.8,36.8v28.7c0,14.7-11.9,26.6-26.6,26.6H374.8c-14.7,0-26.6-11.9-26.6-26.6V36.8c0-20.3-16.6-36.8-36.8-36.8
	h-18.5C272.6,0,256,16.6,256,36.8v28.7c0,14.7-11.9,26.6-26.6,26.6H67.6C30.2,92.2,0,122.4,0,159.7v796.7
	c0,37.3,30.2,67.6,67.6,67.6h888.9c37.3,0,67.6-30.2,67.6-67.6V159.7C1024,122.4,993.8,92.2,956.4,92.2z M745.6,410.5L473.5,785.2
	c-8.2,11.3-25.1,11.3-33.3,0L278.4,562.4c-4.9-6.8,0-16.3,8.3-16.3h70.7c6.5,0,12.8,3.2,16.6,8.4l61.3,84.3
	c10.6,14.6,32.4,14.6,43,0L650,402.6c3.8-5.2,10-8.4,16.6-8.4h70.7C745.6,394.2,750.5,403.7,745.6,410.5L745.6,410.5z"/>
</svg>
