<?xml version="1.0" encoding="utf-8"?>
<!-- Generator: Adobe Illustrator 26.4.1, SVG Export Plug-In . SVG Version: 6.00 Build 0)  -->
<svg version="1.1" id="图层_1" xmlns="http://www.w3.org/2000/svg" xmlns:xlink="http://www.w3.org/1999/xlink" x="0px" y="0px"
	 viewBox="0 0 1024 1024" style="enable-background:new 0 0 1024 1024;" xml:space="preserve">
<style type="text/css">
	.st0{fill:#FFFFFF;fill-opacity:0.65;}
</style>
<path class="st0" d="M512,0C229.3,0,0,229.3,0,512s229.3,512,512,512s512-229.3,512-512S794.7,0,512,0z M702.4,282.1l-127,234.1
	h70.9c5,0,9.1,4.1,9.1,9.1v34.2c0,5-4.1,9.1-9.1,9.1h-93.7V616h93.7c5,0,9.1,4.1,9.1,9.1v34.2c0,5-4.1,9.1-9.1,9.1h-93.7v77.8
	c0,5-4.1,9.1-9.1,9.1h-62.1c-5,0-9.1-4.1-9.1-9.1v-77.8h-93.4c-5,0-9.1-4.1-9.1-9.1v-34.2c0-5,4.1-9.1,9.1-9.1h93.4v-47.4h-93.4
	c-5,0-9.1-4.1-9.1-9.1v-34.2c0-5,4.1-9.1,9.1-9.1H449L321.6,282.1c-2.4-4.5-0.8-9.9,3.7-12.5c1.4-0.7,2.9-1.1,4.3-1.1H399
	c3.4,0,6.6,1.9,8.1,5l103.5,205.7h3.9l103.5-205.7c1.6-3.1,4.7-5,8.1-5h68c5,0,9.1,4.1,9.1,9.1C703.5,279.2,703.1,280.7,702.4,282.1
	z"/>
</svg>
