<svg class="icon"
    style="width: 1em;height: 1em;vertical-align: middle;fill: currentColor;overflow: hidden;"
    viewBox="0 0 1024 1024" version="1.1" xmlns="http://www.w3.org/2000/svg" p-id="3322">
    <path
        d="M884.5 434.7c-73.6 0-144.9-23.9-203.9-67.8v308.3c0 157.3-121.4 284.8-270.9 284.8-149.5 0-270.9-127.6-270.9-284.8 0-157.2 121.4-284.8 270.9-284.8 15 0 29.7 1.1 43.5 3.9v163c-13.5-5.4-28.1-8.1-42.4-8.1-66.7 0-121 56.7-121 127.2s54.4 127.2 121 127.2S531.4 747 531.4 676.4V64h151.1c0 117.9 90.9 213.1 202.7 213.1v157.6h-0.7"
       fill="#FFFFFF" fill-opacity=".65" p-id="3323"></path>
</svg>