<svg class="icon"
    style="width: 1em;height: 1em;vertical-align: middle;fill: currentColor;overflow: hidden;"
    viewBox="0 0 1024 1024" version="1.1" xmlns="http://www.w3.org/2000/svg" p-id="38030">
    <path
        d="M800 960H224c-52.928 0-96-43.072-96-96V224c0-52.928 43.072-96 96-96h448c17.696 0 32 14.336 32 32s-14.304 32-32 32H224c-17.632 0-32 14.368-32 32v640c0 17.664 14.368 32 32 32h576c17.664 0 32-14.336 32-32V352c0-17.664 14.304-32 32-32s32 14.336 32 32v512c0 52.928-43.072 96-96 96zM612 448a31.912 31.912 0 0 1-22.624-9.376c-12.512-12.512-12.512-32.736 0-45.248L907.392 75.36c12.512-12.512 32.736-12.512 45.248 0s12.512 32.736 0 45.248L634.624 438.624C628.384 444.896 620.192 448 612 448zM480 448H288c-17.664 0-32-14.336-32-32s14.336-32 32-32h192c17.664 0 32 14.336 32 32s-14.336 32-32 32zM672 640H288c-17.664 0-32-14.304-32-32s14.336-32 32-32h384c17.696 0 32 14.304 32 32s-14.304 32-32 32z"
        fill="#FFFFFF" fill-opacity=".65" p-id="38031"></path>
</svg>