<?xml version="1.0" encoding="utf-8"?>
<!-- Generator: Adobe Illustrator 26.4.1, SVG Export Plug-In . SVG Version: 6.00 Build 0)  -->
<svg version="1.1" id="图层_1" xmlns="http://www.w3.org/2000/svg" xmlns:xlink="http://www.w3.org/1999/xlink" x="0px" y="0px"
	 viewBox="0 0 1024 1024" style="enable-background:new 0 0 1024 1024;" xml:space="preserve">
<style type="text/css">
	.st0{fill:#FFFFFF;fill-opacity:0.65;}
</style>
<path class="st0" d="M-1.9,526.8c0,223.9,143.2,414.8,345.1,484.6c25.7,7.3,22-11,22-25.7v-88.1C211,915.9,203.6,813.1,192.6,794.7
	c-22-36.7-69.7-44.1-55.1-62.4c36.7-18.4,73.4,3.7,113.8,66.1c29.4,44.1,88.1,36.7,121.1,29.4c7.3-25.7,22-51.4,40.4-69.7
	c-165.2-25.7-231.3-124.8-231.3-242.3c0-55.1,18.4-110.1,55.1-150.5c-25.7-69.7,0-132.2,3.7-139.5c66.1-7.3,135.8,47.7,143.2,51.4
	c36.7-11,80.8-14.7,128.5-14.7c47.7,0,91.8,7.3,128.5,14.7c14.7-11,77.1-55.1,139.5-51.4c3.7,7.3,29.4,66.1,7.3,135.8
	c36.7,44.1,55.1,95.4,55.1,150.5c0,117.5-66.1,216.6-231.3,245.9c25.7,25.7,44.1,62.4,44.1,106.5V993c0,11,0,22,18.4,22
	c205.6-69.7,352.4-260.6,352.4-488.2c0-282.7-231.3-513.9-513.9-513.9S-1.9,244.1-1.9,526.8z"/>
</svg>
