<svg class="icon"
    style="width: 1em;height: 1em;vertical-align: middle;fill: currentColor;overflow: hidden;"
    viewBox="0 0 1024 1024" version="1.1" xmlns="http://www.w3.org/2000/svg" p-id="5119">
    <path
        d="M590.08 660.48a4.864 4.864 0 0 0-2.816 2.048 3.072 3.072 0 0 0 1.536 3.072 633.344 633.344 0 0 0 123.904 73.472 65.792 65.792 0 0 0 13.568 2.048h4.864c22.272 0 60.672-12.288 95.744-72.448zM889.088 460.8s-200.448 107.776-304.384 177.664a2.816 2.816 0 0 0 0 3.328s0 1.792 2.304 1.792h181.248a141.824 141.824 0 0 0 40.704-9.472 138.752 138.752 0 0 0 76.8-72.704 141.568 141.568 0 0 0 10.24-58.112v-1.28a128 128 0 0 0-6.912-41.216zM778.496 264.192a1756.928 1756.928 0 0 0-213.504 345.856v3.584h1.28c33.792-16.64 174.336-88.32 232.704-145.152a114.176 114.176 0 0 0 38.912-76.8c4.352-66.304-62.208-128-62.208-128zM568.32 162.304s-70.144 90.112-36.096 429.824a2.816 2.816 0 0 0 5.376 1.28c22.528-32.768 124.672-184.064 145.408-276.48a156.928 156.928 0 0 0 0-74.752 109.568 109.568 0 0 0-78.08-72.704s-18.176-4.608-37.12-7.424zM197.632 668.672c35.072 60.16 73.472 71.68 95.744 72.448h4.864a65.792 65.792 0 0 0 13.568-2.048A633.344 633.344 0 0 0 435.2 665.6a3.072 3.072 0 0 0 0-3.072 4.864 4.864 0 0 0 0-2.048zM134.912 460.8A128 128 0 0 0 128 502.016v1.28a141.568 141.568 0 0 0 12.032 57.088 138.752 138.752 0 0 0 76.8 72.704 141.824 141.824 0 0 0 39.168 9.472h181.248c1.536 0 2.304-1.792 2.304-1.792a2.816 2.816 0 0 0 0-3.328C335.36 567.808 134.912 460.8 134.912 460.8zM245.504 264.192s-66.56 61.184-62.208 128a114.176 114.176 0 0 0 38.912 76.8c58.368 56.832 198.912 128 232.704 145.152h1.28c1.792 0 0-3.584 0-3.584a1756.928 1756.928 0 0 0-210.688-346.368zM455.68 162.304c-18.944 2.816-37.12 7.424-37.12 7.424a109.568 109.568 0 0 0-78.08 72.704 156.928 156.928 0 0 0 0 74.752c20.736 92.416 122.88 243.712 145.408 276.48a2.816 2.816 0 0 0 5.376-1.28c34.56-339.968-35.584-430.08-35.584-430.08z"
        fill="#FFFFFF" fill-opacity=".65" p-id="5120"></path>
</svg>