<?xml version="1.0" encoding="utf-8"?>
<!-- Generator: Adobe Illustrator 26.4.1, SVG Export Plug-In . SVG Version: 6.00 Build 0)  -->
<svg version="1.1" id="图层_1" xmlns="http://www.w3.org/2000/svg" xmlns:xlink="http://www.w3.org/1999/xlink" x="0px" y="0px"
	 viewBox="0 0 1024 1024" style="enable-background:new 0 0 1024 1024;" xml:space="preserve">
<style type="text/css">
	.st0{fill:#FFFFFF;fill-opacity:0.65;}
</style>
<path class="st0" d="M810.8,383.9H554.8c-23.6,0-42.7-19.1-42.7-42.7s19.1-42.7,42.7-42.7h256.1c23.6,0,42.7,19.1,42.7,42.7
	S834.4,383.9,810.8,383.9 M810.8,554.6H640.1c-23.6,0-42.7-19.1-42.7-42.7c0-23.6,19.1-42.7,42.7-42.7h170.7
	c23.6,0,42.7,19.1,42.7,42.7C853.5,535.5,834.4,554.6,810.8,554.6 M810.8,725.3H640.1c-23.6,0-42.7-19.1-42.7-42.7
	c0-23.6,19.1-42.7,42.7-42.7h170.7c23.6,0,42.7,19.1,42.7,42.7C853.5,706.2,834.4,725.3,810.8,725.3 M130.3,701.9l-2.3-6.7v-74.6
	c0-27.7,17.8-54.2,43.3-64.4c1.4-0.6,27.7-12,63.1-22.7c-10.7-18.1-16.4-38.7-16.6-59.7V418c0-52.3,34-96.4,80.9-112.5
	c12.2-4.2,25-7,38.5-7c65.9,0.2,119.2,53.6,119.4,119.5v55.9c0,21-5.9,40.5-15.4,57.6c24.3,7,48.2,15.4,71.6,25.2
	c17.2,7.1,30.7,22.5,37.3,40.5c2.8,7.5,4.7,15.4,4.7,23.4l-0.2,67.4c-2.4,31.6-28.7,56-60.4,56H188.6
	C162.1,744,138.7,727,130.3,701.9 M938.8,85.2H85.4c-47,0-85.2,38-85.4,85.1v683.4c0,46.9,38.4,85.1,85.5,85.1h853.3
	c47.1,0,85.3-38,85.4-85.1V170.2C1024,123.2,985.8,85.1,938.8,85.2"/>
</svg>
