<?xml version="1.0" encoding="utf-8"?>
<!-- Generator: Adobe Illustrator 26.4.1, SVG Export Plug-In . SVG Version: 6.00 Build 0)  -->
<svg version="1.1" id="图层_1" xmlns="http://www.w3.org/2000/svg"
    xmlns:xlink="http://www.w3.org/1999/xlink" x="0px" y="0px"
    viewBox="0 0 1024 1024" style="enable-background:new 0 0 1024 1024;" xml:space="preserve">
<style type="text/css">
	.st0{fill:#FFF;fill-opacity:.65;}
</style>
<path class="st0" d="M717.7,459.1l-234.1,256c-8.1,8.8-19.5,13.9-31.5,13.9h-0.3c-12.1-0.1-23.5-5.2-31.6-14.3l-114.3-128
	c-15.7-17.6-14.2-44.5,3.4-60.2c17.6-15.7,44.6-14.2,60.2,3.4l82.9,92.8l202.3-221.2c15.9-17.4,42.9-18.6,60.3-2.7
	C732.4,414.7,733.6,441.7,717.7,459.1 M512,0C229.6,0,0,229.8,0,512c0,282.4,229.6,512,512,512c282.2,0,512-229.6,512-512
	C1024,229.8,794.2,0,512,0"/>
</svg>