<?xml version="1.0" encoding="utf-8"?>
<!-- Generator: Adobe Illustrator 26.4.1, SVG Export Plug-In . SVG Version: 6.00 Build 0)  -->
<svg version="1.1" id="图层_1" xmlns="http://www.w3.org/2000/svg" xmlns:xlink="http://www.w3.org/1999/xlink" x="0px" y="0px"
	 viewBox="0 0 1024 1024" style="enable-background:new 0 0 1024 1024;" xml:space="preserve">
<style type="text/css">
	.st0{fill:#FFF;fill-opacity:.65;}
</style>
<path class="st0" d="M0.47,333.71v-75.9h1022.78V75.4c0-41.64-33.76-75.4-75.4-75.4l0,0H75.86C34.22,0,0.46,33.76,0.46,75.4v873.2
	c0,41.64,33.76,75.4,75.4,75.4c0,0,0,0,0,0h871.99c41.64,0,75.4-33.76,75.4-75.4v0V333.71H0.47z M474.56,86.88
	c34.7,0,62.84,28.13,62.84,62.84s-28.13,62.84-62.84,62.84s-62.84-28.13-62.84-62.84S439.86,86.88,474.56,86.88L474.56,86.88z
	 M311.69,86.88c34.7,0,62.84,28.13,62.84,62.84s-28.13,62.84-62.84,62.84s-62.84-28.13-62.84-62.84S276.99,86.88,311.69,86.88
	L311.69,86.88z M148.82,86.88c34.7,0,62.84,28.13,62.84,62.84s-28.13,62.84-62.84,62.84s-62.84-28.13-62.84-62.84
	c0-34.7,28.13-62.83,62.82-62.84H148.82z"/>
</svg>
