<svg class="icon"
    style="width: 1em;height: 1em;vertical-align: middle;fill: currentColor;overflow: hidden;"
    viewBox="0 0 1024 1024" version="1.1" xmlns="http://www.w3.org/2000/svg" p-id="1808">
    <path d="M665.286924 721.881468c-0.120414-0.60207-0.120414-0.240828 0 0z" fill="#B8A182"
        p-id="1809"></path>
    <path
        d="M513.204139 81.520226c-237.697084 0-430.479774 192.78269-430.479774 430.479774s192.78269 430.479774 430.479774 430.479774 430.479774-192.78269 430.479774-430.479774S750.901223 81.520226 513.204139 81.520226zM219.875823 776.669802c1.444967-2.408278 3.010348-4.816557 4.455315-7.224835 35.642521-55.992474 45.396049-116.560677 28.297272-180.380056-20.590781-76.703669-11.680151-148.831609 28.417686-217.226717 3.612418-6.261524 8.067733-12.041392 12.28222-18.42333 3.732832 1.926623 6.984008 3.612418 8.790216 4.575729 19.0254-18.904986 37.328316-37.207902 56.47413-56.233302-0.963311-1.565381-2.76952-4.455315-5.177798-8.308561 47.081844-34.799624 100.184384-51.537159 158.223894-51.657573 67.431797-0.120414 126.795861 22.39699 177.851364 65.746002-21.433678 21.554092-42.385701 42.506115-62.494826 62.735654-14.690499-8.188147-29.260583-17.821261-45.034807-24.56444-74.656632-32.270931-162.438382-8.91063-212.771402 55.992474-49.610536 63.819379-50.212606 153.648166-1.083725 218.190028 3.732832 4.936971 3.853246 7.586077-0.722483 12.041392-46.720602 46.238946-93.200376 92.718721-139.800565 139.198495-2.167451 2.167451-4.334901 4.214487-7.706491 5.53904z m303.443086-304.767638c-1.806209-0.722484-4.094073-3.37159-4.094074-5.057385-0.240828-33.354657-0.120414-66.709313-0.120414-100.06397 0-0.842897 0.481656-1.685795 1.20414-4.334901 6.020696 19.988711 20.470367 27.93603 37.328316 34.799624 44.19191 17.580433 69.238006 51.175917 77.546566 97.414863h-2.528692c-1.083725 3.732832-3.251176 7.586077-3.251176 11.318909 0.361242 62.976482-39.616181 111.142051-101.268109 121.497648-2.649106 0.481656-5.53904 0.481656-8.669803 0.722484-0.240828-2.167451-0.60207-3.732832-0.602069-5.298213 0-21.313264 0-42.746943-0.120414-64.060207 0-3.973659 0.60207-6.261524 4.936971-7.947319 18.784572-7.104421 28.778928-21.433678 28.538099-39.977422 0-18.062088-10.235183-31.548448-28.899341-39.014111zM499.11571 551.495767c3.010348 1.083725 5.298213 1.806209 5.177799 6.020696-0.240828 34.317968-0.120414 68.515522-0.120414 102.83349-0.60207 0-1.204139 0.120414-1.204139 0-5.177799-17.219191-17.580433-26.491063-33.956726-32.873001-43.108184-16.737535-69.238006-48.406397-78.750706-93.682032-0.60207-3.130762-1.806209-6.381938 3.251176-7.706491 0.963311-0.240828 1.444967-4.455315 1.324553-6.74318-1.444967-32.752587 8.308561-61.651929 30.344309-85.975541 20.711195-22.999059 46.96143-35.160865 79.111947-38.291627v33.836312c0 12.402634-0.120414 24.925682 0.120414 37.328316 0 3.612418-0.963311 5.298213-4.575729 6.502352-17.700847 5.900282-28.5381 20.590781-28.899342 38.412042-0.361242 18.664158 9.994356 33.475071 28.176858 40.338664z m293.087488-284.778928c-29.862653 54.547507-36.124177 111.984948-19.988711 171.830668 21.19285 78.871119 9.271872 152.56444-34.317968 221.441204-2.167451 3.492004-4.816557 6.74318-7.465663 10.355598-3.612418-2.047037-6.622766-3.732832-8.428975-4.816557-18.784572 18.784572-37.328316 37.207902-56.594543 56.474129 5.177799 8.549389 5.057385 8.549389-3.492004 14.449671-92.959548 63.096896-219.15334 60.568203-309.463782-6.261524-6.381938-4.696143-12.523048-9.753528-18.302916-14.329257 21.433678-21.554092 42.265287-42.506115 63.337723-63.698965 6.020696 4.094073 12.161806 8.91063 18.784572 12.763876 59.604892 35.160865 121.015992 38.291627 181.70461 5.177799 60.929445-33.234243 92.357479-86.818438 94.404515-156.297272 1.204139-40.459078-11.680151-77.305738-36.124176-109.697084-3.853246-5.057385-4.214487-7.826905 0.722483-12.523048 47.081844-46.600188 93.92286-93.441204 140.88429-140.161806 1.806209-1.685795 3.732832-3.251176 5.659454-4.936971 0.240828 0.240828 0.60207 0.481656 0.842898 0.722484-4.214487 6.502352-8.428975 12.88429-12.161807 19.507055z"
        fill="#FFFFFF" fill-opacity=".65" p-id="1810"></path>
</svg>