<svg class="icon"
    style="width: 1.0322265625em;height: 1em;vertical-align: middle;fill: currentColor;overflow: hidden;"
    viewBox="0 0 1057 1024" version="1.1" xmlns="http://www.w3.org/2000/svg" p-id="5595">
    <path
        d="M697.549448 325.020775a39.899416 39.899416 0 0 1 0 58.872793l-297.000059 294.363963a42.307701 42.307701 0 0 1-41.55918 12.789944 41.852079 41.852079 0 0 1-30.7219-30.461545c-3.775149-15.06805 1.204142-30.917166 12.855032-41.201191l297.032604-294.363964a41.331369 41.331369 0 0 1 59.393503 0z m59.914213 178.082875l118.787006-118.233751A161.745594 161.745594 0 0 0 927.573162 266.863958a161.745594 161.745594 0 0 0-51.322495-118.00594 164.511867 164.511867 0 0 0-119.047361-50.801785 164.674589 164.674589 0 0 0-119.047361 50.801785l-119.307716 117.25742a42.307701 42.307701 0 0 1-54.153857-3.840238 41.396458 41.396458 0 0 1-5.239646-53.535513l118.787006-118.266296A248.76928 248.76928 0 0 1 757.203306 14.644973c67.594688 0 132.260381 27.402372 178.994118 75.828418a244.440877 244.440877 0 0 1 76.51185 177.366899c0 67.008889-27.662727 131.088783-76.51185 177.366899l-117.355053 116.281088c-16.272193 16.825447-43.186399 17.346157-60.142024 1.236687a41.917168 41.917168 0 0 1-1.236686-59.621314z m-179.221929 294.396509l-118.787006 118.233751A248.508925 248.508925 0 0 1 280.493152 991.594872a248.411292 248.411292 0 0 1-178.92903-75.860962 250.591766 250.591766 0 0 1 0-354.245633l119.275172-118.233751a40.843203 40.843203 0 0 1 59.426047 0 39.964505 39.964505 0 0 1 0 58.872793l-118.852095 118.233751a162.266304 162.266304 0 0 0-51.257406 118.266296c0 44.715985 18.517755 87.479307 51.257406 118.233751A165.650921 165.650921 0 0 0 280.493152 907.239825a165.520743 165.520743 0 0 0 119.047361-50.378708l119.307716-118.233751a42.372789 42.372789 0 0 1 57.701195 1.659764c15.751482 15.621305 16.532548 40.713026 1.692308 57.213029z"
        fill="#FFFFFF" fill-opacity=".65" p-id="5596"></path>
</svg>