<svg class="icon" style="width: 1em;height: 1em;vertical-align: middle;fill: currentColor;overflow: hidden;" viewBox="0 0 1024 1024" version="1.1" xmlns="http://www.w3.org/2000/svg" p-id="813"><path d="M930.276974 542.045036c11.613849 237.695636-158.113891 439.209993-386.721541 475.85207-243.899359 39.099673-470.655278-113.356626-526.07066-351.803194-39.884739-171.63067 16.938641-343.730673 149.213638-460.184894 84.650537-74.530019 191.49624-113.544359 305.620865-111.957162 12.919447 4.846926 21.273567 14.438378 21.273567 28.031957l0.034133 402.823916 401.432985-0.938666c13.653312-0.034133 25.113561 5.922124 35.217013 18.167439zM583.406039 710.450111L435.711332 560.903673l0.529066-409.590838C263.594262 167.244544 124.526742 286.94996 79.334278 443.49372c-48.938592 169.514407 12.501314 345.181337 154.060564 448.272379 150.962969 109.934765 363.502376 97.99665 501.733631-27.366358l-67.976429-68.599361-83.746005-85.350269z m290.235288-129.766201l-338.977613-0.520533 243.046027 244.701492c57.412179-70.237759 92.108659-152.985365 95.931586-244.180959z" fill="#1C7FE0" p-id="814"></path><path d="M996.103006 471.55981l-189.149577 1.809064-235.186839-2.38933c-15.146643-0.1536-25.062362-10.026651-25.053828-25.642627l0.179199-416.152962c0-16.904507 13.533846-29.107155 30.327421-29.175422 105.719305-0.443733 206.241817 36.633544 285.320095 105.395039l47.197795 46.549262c71.236157 81.774808 111.112363 183.833318 109.235032 293.469416-0.196266 11.349316-9.676785 26.00956-22.869298 26.13756z m-35.148746-56.473513c-4.855459-67.097497-28.407423-129.894201-67.46443-189.072777C829.378995 130.192867 723.81329 68.215362 604.056674 56.524713l0.793599 358.425051 356.103987 0.136533z" fill="#1C7FE0" p-id="815"></path><path d="M583.406039 710.450111l83.746005 85.350269 67.976429 68.599361c-138.231255 125.363008-350.770662 137.301123-501.733631 27.366358-141.567783-103.091042-203.007689-278.749439-154.060564-448.272379 45.192464-156.54376 184.259984-276.249176 356.90612-292.180885l-0.529066 409.590838 147.694707 149.546438z" fill="#C9E9FD" p-id="816"></path><path d="M873.641327 580.68391c-3.822927 91.195594-38.510874 173.9432-95.931586 244.180959L534.663714 580.163377l338.977613 0.520533z" fill="#FFFFFF" p-id="817"></path><path d="M960.95426 415.086297l-356.103987-0.136533-0.793599-358.425051c119.756616 11.690649 225.322321 73.668154 289.433156 169.488807 39.06554 59.178576 62.608971 121.97528 67.46443 189.072777z" fill="#C9E9FD" p-id="818"></path></svg>